<svg xmlns="http://www.w3.org/2000/svg" width="23" height="23" fill="none">
    <path fill="#4A5568" fill-rule="evenodd"
        d="M11.5.736C5.52.736.736 5.704.736 11.776a11.04 11.04 0 0 0 7.36 10.488c.46 0 .644-.276.644-.552v-1.84c-2.944.644-3.588-1.564-3.588-1.564-.46-1.288-1.196-1.656-1.196-1.656-.92-.644.092-.644.092-.644 1.012 0 1.656 1.196 1.656 1.196.92 1.656 2.484 1.196 3.036.92.092-.736.46-1.196.736-1.472-2.392-.276-4.876-1.288-4.876-5.52 0-1.196.368-2.116 1.104-2.944 0-.184-.46-1.38.092-2.76 0 0 .92-.368 2.944 1.104.92-.276 1.84-.368 2.76-.368.92 0 1.84.092 2.668.368 2.024-1.472 2.944-1.196 2.944-1.196.552 1.472.184 2.668.092 2.944.736.736 1.196 1.748 1.196 2.944 0 4.232-2.576 5.152-4.876 5.428.368.276.736.92.736 2.024v3.036c0 .276.184.552.644.552 4.324-1.564 7.36-5.612 7.36-10.488C22.08 5.704 17.388.736 11.5.736Z"
        clip-rule="evenodd" />
</svg>
