<svg xmlns="http://www.w3.org/2000/svg" width="19" height="19" fill="none">
    <path fill="#2867B1"
        d="M9.5.22h7.931a1.348 1.348 0 0 1 1.348 1.349v15.862c0 .714-.555 1.269-1.269 1.348H1.648c-.714 0-1.19-.396-1.348-.951V1.569C.3.776.855.3 1.569.221H9.5Zm.634 8.09V7.36c0-.159 0-.159-.237-.159H7.676c-.238 0-.238 0-.238.238v8.407c0 .158 0 .238.238.238h2.38c.158 0 .158 0 .158-.238v-4.362l.08-.793c.158-.635.396-1.11 1.03-1.27l.635-.079c.634 0 1.03.318 1.19.952.158.317.158.714.158 1.11v4.362c0 .16 0 .238.238.238h2.38c.078 0 .158 0 .158-.238V10.69c0-.556 0-1.11-.159-1.666-.317-.952-.793-1.665-1.824-1.983l-1.11-.158c-.556 0-1.19 0-1.666.317-.555.238-.872.634-1.19 1.031v.08Zm-7.137 3.331v4.204c0 .158 0 .238.158.238h2.38c.237 0 .237-.08.237-.238V7.359c0-.159 0-.159-.158-.159h-2.38c-.237 0-.237 0-.237.159v4.282Zm1.348-5.71a1.586 1.586 0 1 0 0-3.172 1.586 1.586 0 0 0 0 3.172Z" />
</svg>
